<svg width="1442" height="1501" viewBox="0 0 1442 1501" fill="none" xmlns="http://www.w3.org/2000/svg">
<g filter="url(#filter0_di_150_53)">
<path d="M188.949 462.833C75.035 509.351 204.335 615.777 296.863 738.618C358.528 820.486 400.214 953.311 454 1005.09C588.491 1134.55 1061.35 1243.65 1190.81 1109.17C1320.27 974.68 1332.17 801.069 1197.67 671.607C1033.58 559.45 826.489 674.338 695.246 662.183C457.975 640.209 317.022 410.532 188.949 462.833Z" fill="#271B56"/>
</g>
<path d="M1107.27 1154.98L1084.53 1163.29L1104.44 1176.95L1081.11 1169.73L1089.53 1193.06L1074.93 1173.78L1067.73 1197.14L1067.14 1172.34L1048 1187.51L1061.62 1167.58L1037.42 1168.06L1060.15 1159.75L1040.25 1146.09L1063.47 1152.75L1055.16 1129.98L1070.32 1149.15L1076.95 1125.9L1077.44 1150.14L1096.69 1135.53L1083.07 1155.46L1107.27 1154.98Z" fill="#F8C1DF"/>
<path d="M1319.55 823.024L1300.13 837.478L1323.11 844.883L1298.68 844.622L1313.41 864.585L1293.91 850.271L1293.68 874.715L1286.04 851.115L1272.02 871.116L1279.39 848.128L1256.33 855.491L1275.75 841.036L1252.77 833.632L1276.93 833.386L1262.47 813.93L1282.47 827.983L1282.19 803.8L1289.58 826.893L1303.86 807.399L1296.49 830.387L1319.55 823.024Z" fill="#F8C1DF"/>
<path d="M184.097 464.211L166.705 481.053L190.446 485.428L166.195 488.323L183.376 506.217L162.196 494.541L165.125 518.809L154.496 496.395L143.18 518.039L147.518 494.291L125.599 504.571L142.991 487.729L119.25 483.355L143.177 479.991L126.32 462.565L147.968 473.918L144.571 449.973L154.877 471.919L166.516 450.744L162.178 474.491L184.097 464.211Z" fill="#F8C1DF"/>
<path d="M876.049 1142.37L856.716 1156.95L879.738 1164.21L855.315 1164.1L870.162 1183.97L850.581 1169.78L850.499 1194.22L842.71 1170.67L828.816 1190.75L836.045 1167.72L813.027 1175.23L832.36 1160.65L809.338 1153.39L833.498 1153L818.914 1133.63L839 1147.56L838.577 1123.38L846.103 1146.43L860.261 1126.84L853.031 1149.88L876.049 1142.37Z" fill="#F8C1DF"/>
<path d="M672.64 1096.04L650.846 1106.59L672.019 1118.18L648.083 1113.33L658.789 1135.71L642.336 1117.98L637.51 1141.94L634.442 1117.33L616.913 1134.33L628.476 1113.14L604.439 1116.03L626.234 1105.49L605.06 1093.9L628.837 1098.2L618.29 1076.37L635.289 1093.94L639.569 1070.13L642.477 1094.2L660.167 1077.74L648.604 1098.93L672.64 1096.04Z" fill="#F8C1DF"/>
<path d="M1213.01 646.917L1196.47 664.599L1220.4 667.793L1196.32 671.885L1214.36 688.907L1192.63 678.294L1196.76 702.387L1185.03 680.527L1174.8 702.704L1177.96 678.771L1156.58 690.123L1173.11 672.441L1149.18 669.247L1172.92 664.702L1155.22 648.133L1177.4 658.4L1172.82 634.653L1184.2 656.061L1194.78 634.336L1191.62 658.269L1213.01 646.917Z" fill="#F8C1DF"/>
<path d="M213.078 579.608L191.33 590.244L212.553 601.748L188.758 597.545L199.399 619.331L182.324 601.838L178.147 625.66L175.135 601.603L157.517 618.138L168.988 596.898L144.964 599.893L166.875 589.803L145.49 577.753L169.447 582.501L158.806 560.716L175.336 578.371L180.058 554.387L183.07 578.444L200.526 561.363L189.217 583.149L213.078 579.608Z" fill="#F8C1DF"/>
<path d="M1282.72 1013.6L1262.54 1026.97L1285.08 1035.62L1260.94 1034.55L1274.32 1054.76L1255.12 1039.64L1254.08 1063.8L1247.96 1040.34L1232.64 1059.03L1241.25 1036.48L1217.82 1042.57L1238.23 1029.72L1215.46 1020.55L1239.83 1022.14L1226.45 1001.93L1245.14 1017.28L1246.7 992.888L1252.81 1016.35L1267.9 997.141L1259.52 1020.21L1282.72 1013.6Z" fill="#F8C1DF"/>
<defs>
<filter id="filter0_di_150_53" x="65.5184" y="376.31" width="1306.63" height="873.258" filterUnits="userSpaceOnUse" color-interpolation-filters="sRGB">
<feFlood flood-opacity="0" result="BackgroundImageFix"/>
<feColorMatrix in="SourceAlpha" type="matrix" values="0 0 0 0 0 0 0 0 0 0 0 0 0 0 0 0 0 0 127 0" result="hardAlpha"/>
<feOffset/>
<feGaussianBlur stdDeviation="39.4"/>
<feComposite in2="hardAlpha" operator="out"/>
<feColorMatrix type="matrix" values="0 0 0 0 1 0 0 0 0 1 0 0 0 0 1 0 0 0 0.25 0"/>
<feBlend mode="normal" in2="BackgroundImageFix" result="effect1_dropShadow_150_53"/>
<feBlend mode="normal" in="SourceGraphic" in2="effect1_dropShadow_150_53" result="shape"/>
<feColorMatrix in="SourceAlpha" type="matrix" values="0 0 0 0 0 0 0 0 0 0 0 0 0 0 0 0 0 0 127 0" result="hardAlpha"/>
<feOffset/>
<feGaussianBlur stdDeviation="59.9"/>
<feComposite in2="hardAlpha" operator="arithmetic" k2="-1" k3="1"/>
<feColorMatrix type="matrix" values="0 0 0 0 0.971667 0 0 0 0 0.7579 0 0 0 0 0.873334 0 0 0 1 0"/>
<feBlend mode="normal" in2="shape" result="effect2_innerShadow_150_53"/>
</filter>
</defs>
</svg>
