<svg width="664" height="141" viewBox="0 0 664 141" fill="none" xmlns="http://www.w3.org/2000/svg">
<rect x="33.501" y="0.503906" width="630" height="140" rx="18.5" stroke="#F8C1DF"/>
<path d="M65.726 71.1639C57.0635 71.1639 48.9097 67.0298 42.7772 59.504C36.6447 51.9782 33.276 41.972 33.276 31.3414V31.0039H32.726V31.3414C32.726 41.972 29.3572 51.9782 23.2247 59.504C17.0922 67.0298 8.93848 71.1639 0.275977 71.1639H0.000976562V71.8389H0.275977C8.93848 71.8389 17.0922 75.973 23.2247 83.4988C29.3572 91.0246 32.726 101.031 32.726 111.661V111.999H33.276V111.661C33.276 101.031 36.6447 91.0246 42.7772 83.4988C48.9097 75.973 57.0635 71.8389 65.726 71.8389H66.001V71.1639H65.726Z" fill="#F8C1DF"/>
</svg>
