<svg width="382" height="131" viewBox="0 0 382 131" fill="none" xmlns="http://www.w3.org/2000/svg">
<rect x="0.5" y="0.5" width="348" height="130" rx="18.5" stroke="#F8C1DF"/>
<path d="M381.725 60.16C373.062 60.16 364.909 56.0259 358.776 48.5001C352.644 40.9743 349.275 30.9681 349.275 20.3375V20H348.725V20.3375C348.725 30.9681 345.356 40.9743 339.224 48.5001C333.091 56.0259 324.938 60.16 316.275 60.16H316V60.835H316.275C324.938 60.835 333.091 64.9691 339.224 72.4949C345.356 80.0207 348.725 90.0269 348.725 100.658V100.995H349.275V100.658C349.275 90.0269 352.644 80.0207 358.776 72.4949C364.909 64.9691 373.062 60.835 381.725 60.835H382V60.16H381.725Z" fill="#F8C1DF"/>
</svg>
