<svg width="515" height="131" viewBox="0 0 515 131" fill="none" xmlns="http://www.w3.org/2000/svg">
<rect x="0.5" y="0.5" width="481" height="130" rx="18.5" stroke="#F8C1DF"/>
<path d="M514.725 60.16C506.062 60.16 497.909 56.0259 491.776 48.5001C485.644 40.9743 482.275 30.9681 482.275 20.3375V20H481.725V20.3375C481.725 30.9681 478.356 40.9743 472.224 48.5001C466.091 56.0259 457.938 60.16 449.275 60.16H449V60.835H449.275C457.938 60.835 466.091 64.9691 472.224 72.4949C478.356 80.0207 481.725 90.0269 481.725 100.658V100.995H482.275V100.658C482.275 90.0269 485.644 80.0207 491.776 72.4949C497.909 64.9691 506.062 60.835 514.725 60.835H515V60.16H514.725Z" fill="#F8C1DF"/>
</svg>
