<svg width="326" height="121" viewBox="0 0 326 121" fill="none" xmlns="http://www.w3.org/2000/svg">
<rect x="28.6621" y="0.5" width="296.838" height="120" rx="18.5" stroke="#F8C1DF"/>
<path d="M56.0899 60.0944C48.6973 60.0944 41.7389 56.2758 36.5054 49.3245C31.2719 42.3732 28.397 33.1308 28.397 23.3117V23H27.9276V23.3117C27.9276 33.1308 25.0527 42.3732 19.8192 49.3245C14.5857 56.2758 7.62729 60.0944 0.234686 60.0944H0V60.7178H0.234686C7.62729 60.7178 14.5857 64.5364 19.8192 71.4877C25.0527 78.439 27.9276 87.6814 27.9276 97.5005V97.8122H28.397V97.5005C28.397 87.6814 31.2719 78.439 36.5054 71.4877C41.7389 64.5364 48.6973 60.7178 56.0899 60.7178H56.3246V60.0944H56.0899Z" fill="#F8C1DF"/>
</svg>
