<?xml version="1.0" encoding="UTF-8"?>
<svg id="_Слой_1" data-name="Слой 1" xmlns="http://www.w3.org/2000/svg" viewBox="0 0 1920 250">
  <defs>
    <style>
      .cls-1 {
        fill: none;
        stroke: #fff;
        stroke-miterlimit: 10;
        stroke-width: 3px;
      }
    </style>
  </defs>
  <path class="cls-1" d="m1919.08,146.72c-11.47-12.46-55.32-57.08-121.93-59.58-22.91-.86-42.37,3.49-56.81,8.31,7.02,5.85,19.8,18.36,23.55,37.41,1.36,6.9,4,18.55-1.39,27.71-8.34,14.2-33.76,19.12-61.95,9.79-21.8,6.65-62.21,15.67-111.24,6.84-30.3-5.46-54.23-15.99-70.66-24.94,17.27,4.91,42.7,9.94,73.43,8.31,43.18-2.29,75.99-16.62,94.22-26.32-110.5-3.78-194.15-23.69-250.78-41.57-51.45-16.24-87.12-33.47-145.48-37.41-71.16-4.8-130.75,10.76-170.42,24.94,12.02-3.77,30.68-7.78,53.02-5.1,8.81,1.06,16.59,2.97,23.18,5.1-2.95.43-7.49,1.47-12.38,4.19-5.68,3.16-9.25,7.16-11.17,9.66,17.29-2.54,43.77-4.44,74.71,1.77,31.79,6.37,80.17,23.68,79.08,39.8-1.06,15.58-47.95,23.77-76.2,29.1-75.23,14.18-158.41,29.86-195.36-16.63-26.76-33.67-16.83-84.27-9.7-109.46-7.49,5.27-27.06,20.5-37.41,48.49-9.43,25.51-6.07,47.68-4.16,56.81-70.96-67.18-106.67-74.6-126.08-65.12-25.56,12.48-13.54,49.7-47.11,73.43-39.42,27.88-92.97,2.68-112.23,33.25-1.43,2.27-5.5,8.93-4.16,16.63,2.36,13.47,20.25,24.05,45.72,27.71-38.85,9.54-71.79-1.03-80.36-20.78-5.83-13.43.63-28.76,1.39-30.48,10.21-23.36,33.93-20.6,51.26-40.18,17.88-20.2,21.57-55.83,8.31-83.13-17.75-36.58-61.35-48.87-91.44-42.95-6.39,1.26-33.32,6.56-36.02,23.55-1.85,11.63,8.17,25.49,24.94,33.25-9.77-8.34-12.63-20.18-8.31-27.71,5.12-8.94,18.36-8.37,19.4-8.31,15.6.89,32.31,17.08,31.87,30.48-.66,20.24-40.09,24.69-101.14,56.81-67.7,35.61-67.99,55.79-110.84,69.28-26.91,8.47-69.61,13.99-131.62-8.31,14.3,3.29,43.22,7.91,77.59-1.39,28.63-7.74,48.64-21.78,59.53-30.71-73.91,9.39-134.08,5.66-175.92.23-51.18-6.64-111.17-15.11-123.31-49.88-.84-2.39-5.34-16.05,1.39-26.32,12.03-18.37,54.38-17.36,108.07,4.16-14.82-11.22-62.36-44.24-130.24-42.95C65.45,36.17,10.83,94.81,1.51,105.15"/>
</svg>