<svg width="106" height="409" viewBox="0 0 106 409" fill="none" xmlns="http://www.w3.org/2000/svg">
<path d="M54.0037 97H52.9989C52.6434 72.5676 52.2453 61.5188 46.361 55.6408C40.4767 49.7629 29.4327 49.3585 5 49.0018V47.997C29.4327 47.6415 40.4817 47.2434 46.3597 41.3592C52.2377 35.4749 52.6396 24.4312 52.9976 0L54.0024 0C54.3578 24.4324 54.756 35.4812 60.6403 41.3592C66.5246 47.2371 77.5685 47.639 102 47.997V49.0018C77.5698 49.3585 66.5208 49.7616 60.6403 55.6383C54.7598 61.515 54.3604 72.5676 54.0037 97ZM24.1111 48.4994C27.2511 48.6677 30.0143 48.8975 32.4848 49.2241C39.5623 50.1585 44.0612 51.9194 47.0756 54.9287C50.09 57.938 51.8484 62.4369 52.7816 69.5118C53.1081 71.981 53.3367 74.7417 53.5063 77.8854C53.6746 74.7454 53.9044 71.9823 54.231 69.5118C55.1667 62.4369 56.9263 57.9393 59.9369 54.9287C62.9475 51.9181 67.4452 50.156 74.5202 49.2228C76.9895 48.8963 79.7502 48.6677 82.8939 48.4981C79.7539 48.3298 76.9908 48.1 74.5202 47.7734C67.4452 46.8377 62.9475 45.0781 59.9369 42.0675C56.9263 39.057 55.1642 34.5593 54.231 27.4844C53.9044 25.0152 53.6758 22.2546 53.5063 19.1109C53.338 22.2508 53.1081 25.0139 52.7816 27.4844C51.8408 34.5606 50.0812 39.0595 47.0756 42.0738C44.07 45.0882 39.5673 46.8465 32.4923 47.7797C30.018 48.1025 27.2586 48.3311 24.1136 48.4994H24.1111Z" fill="#D4A618"/>
<path d="M54.0037 409H52.9989C52.6434 384.568 52.2453 373.519 46.361 367.641C40.4767 361.763 29.4327 361.358 5 361.002V359.997C29.4327 359.642 40.4817 359.243 46.3597 353.359C52.2377 347.475 52.6396 336.431 52.9976 312H54.0024C54.3578 336.432 54.756 347.481 60.6403 353.359C66.5246 359.237 77.5685 359.639 102 359.997V361.002C77.5698 361.358 66.5208 361.762 60.6403 367.638C54.7598 373.515 54.3604 384.568 54.0037 409ZM24.1111 360.499C27.2511 360.668 30.0143 360.898 32.4848 361.224C39.5623 362.159 44.0612 363.919 47.0756 366.929C50.09 369.938 51.8484 374.437 52.7816 381.512C53.1081 383.981 53.3367 386.742 53.5063 389.885C53.6746 386.745 53.9044 383.982 54.231 381.512C55.1667 374.437 56.9263 369.939 59.9369 366.929C62.9475 363.918 67.4452 362.156 74.5202 361.223C76.9895 360.896 79.7502 360.668 82.8939 360.498C79.7539 360.33 76.9908 360.1 74.5202 359.773C67.4452 358.838 62.9475 357.078 59.9369 354.068C56.9263 351.057 55.1642 346.559 54.231 339.484C53.9044 337.015 53.6758 334.255 53.5063 331.111C53.338 334.251 53.1081 337.014 52.7816 339.484C51.8408 346.561 50.0812 351.059 47.0756 354.074C44.07 357.088 39.5673 358.847 32.4923 359.78C30.018 360.102 27.2586 360.331 24.1136 360.499H24.1111Z" fill="#D4A618"/>
<path d="M53 151C52.2495 202.446 51.641 203.052 0 203.8C51.641 204.548 52.2495 205.154 53 256.6C53.7505 205.154 54.3589 204.548 106 203.8C54.3589 203.052 53.7505 202.446 53 151Z" fill="#D4A618"/>
</svg>
