<svg width="161" height="586" viewBox="0 0 161 586" fill="none" xmlns="http://www.w3.org/2000/svg">
<path d="M100.676 100.472L130.711 108.905L108.186 87.3221L138.427 79.6018L108.126 72.1582L130.441 50.3497L100.472 59.0676L108.905 29.0329L87.3218 51.5579L79.6015 21.3168L72.1579 51.6176L50.3494 29.3031L59.0673 59.2719L29.0326 50.8392L51.5576 72.4221L21.3165 80.1424L51.6173 87.586L29.3028 109.394L59.2715 100.677L50.8389 130.711L72.4217 108.186L80.1421 138.427L87.5857 108.127L109.394 130.441L100.676 100.472ZM68.5253 99.7408C57.5464 93.471 53.7333 79.5046 60.0031 68.5257C66.2729 57.5467 80.2393 53.7336 91.2182 60.0034C102.197 66.2732 106.01 80.2396 99.7405 91.2185C93.4707 102.198 79.5043 106.011 68.5253 99.7408Z" fill="#F8C1DF"/>
<path d="M101.676 526.472L131.711 534.905L109.186 513.322L139.427 505.602L109.126 498.158L131.441 476.35L101.472 485.068L109.905 455.033L88.3218 477.558L80.6015 447.317L73.1579 477.618L51.3494 455.303L60.0673 485.272L30.0326 476.839L52.5576 498.422L22.3165 506.142L52.6173 513.586L30.3028 535.394L60.2715 526.677L51.8389 556.711L73.4217 534.186L81.1421 564.427L88.5857 534.127L110.394 556.441L101.676 526.472ZM69.5253 525.741C58.5464 519.471 54.7333 505.505 61.0031 494.526C67.2729 483.547 81.2393 479.734 92.2182 486.003C103.197 492.273 107.01 506.24 100.74 517.219C94.4707 528.198 80.5043 532.011 69.5253 525.741Z" fill="#F8C1DF"/>
<line x1="80.5" y1="454.006" x2="80.5" y2="130" stroke="#F8C1DF" stroke-width="3"/>
</svg>
