<svg width="203" height="204" viewBox="0 0 203 204" fill="none" xmlns="http://www.w3.org/2000/svg">
<path d="M101.499 0L105.312 77.5075L132.865 4.97279L112.564 79.8649L161.159 19.4032L118.732 84.3513L183.614 41.8804L123.212 90.5255L198.032 70.2036L125.569 97.784L203 101.599L125.569 105.416L198.032 132.996L123.212 112.674L183.614 161.318L118.732 118.849L161.159 183.795L112.564 123.334L132.865 198.227L105.312 125.693L101.499 203.2L97.6877 125.693L70.1345 198.227L90.4364 123.334L41.8392 183.795L84.2683 118.849L19.3841 161.318L79.7863 112.674L4.96789 132.996L77.4312 105.416L0 101.599L77.4312 97.784L4.96789 70.2036L79.7863 90.5255L19.3841 41.8804L84.2683 84.3513L41.8392 19.4032L90.4364 79.8649L70.1345 4.97279L97.6877 77.5075L101.499 0Z" fill="#FCF8EA"/>
</svg>
