<svg width="1294" height="867" viewBox="0 0 1294 867" fill="none" xmlns="http://www.w3.org/2000/svg">
<g filter="url(#filter0_di_239_24)">
<path d="M1202 336.81C1261.28 233.458 1099.18 229.193 955.382 190.497C859.548 164.708 748.625 88.1132 676.726 80.6092C496.946 61.8457 70.9274 260.115 52.1643 439.892C33.4012 619.668 127.699 759.311 307.48 778.074C499.561 765.994 589.268 554.956 696.716 486.085C890.967 361.575 1135.36 453.008 1202 336.81Z" fill="#271B56"/>
</g>
<path d="M313.663 180.679L294.892 195.968L318.171 202.36L293.761 203.167L309.346 222.466L289.244 209.019L290.083 233.448L281.413 210.207L268.285 230.8L274.641 207.513L251.922 215.877L270.693 200.588L247.414 194.195L271.542 192.894L256.239 174.089L276.835 187.255L275.502 163.108L283.89 185.854L297.3 165.756L290.944 189.043L313.663 180.679Z" fill="#F8C1DF"/>
<path d="M929.263 160.129L907.081 169.827L927.794 182.225L904.061 176.459L913.903 199.23L898.141 180.886L892.401 204.646L890.278 179.931L872.11 196.251L884.476 175.52L860.347 177.488L882.529 167.79L861.816 155.392L885.409 160.605L875.707 138.387L892.02 156.592L897.209 132.971L899.192 157.134L917.5 141.366L905.133 162.097L929.263 160.129Z" fill="#F8C1DF"/>
<path d="M428.511 129.705L416.324 137.199L429.463 142.757L415.101 141.328L422.727 153.848L411.999 144.405L410.588 158.78L407.319 144.49L398.024 155.531L403.562 142.385L389.601 145.515L401.788 138.02L388.649 132.463L402.885 133.579L395.385 121.372L406.425 130.688L407.525 116.439L410.667 130.417L420.088 119.688L414.55 132.835L428.511 129.705Z" fill="#F8C1DF"/>
<path d="M501.486 105.008L484.286 113.901L501.463 122.72L482.221 119.352L491.259 137.014L477.726 123.193L474.379 142.455L471.4 122.839L457.748 136.809L466.541 119.621L447.384 122.445L464.584 113.552L447.408 104.733L466.51 107.668L457.611 90.4391L471.577 104.121L474.491 84.9986L477.33 104.181L491.122 90.6438L482.33 107.833L501.486 105.008Z" fill="#F8C1DF"/>
<path d="M797.855 439.523L781.154 449.322L798.778 457.211L779.383 454.875L789.352 472.029L775.1 458.951L772.787 478.364L768.765 458.936L755.878 473.615L763.74 455.981L744.762 459.825L761.462 450.026L743.839 442.137L763.07 444.047L753.264 427.319L767.941 440.234L769.829 420.984L773.689 439.987L786.738 425.733L778.877 443.367L797.855 439.523Z" fill="#F8C1DF"/>
<path d="M148.985 676.212L132.593 686.519L150.45 693.863L130.993 692.124L141.484 708.964L126.837 696.329L125.121 715.804L120.504 696.508L108.074 711.576L115.391 693.709L96.5396 698.133L112.932 687.826L95.075 680.482L114.356 681.801L104.041 665.381L119.108 677.841L120.404 658.541L124.845 677.417L137.451 662.769L130.134 680.636L148.985 676.212Z" fill="#F8C1DF"/>
<defs>
<filter id="filter0_di_239_24" x="-28.9875" y="0.573044" width="1322.34" height="856.301" filterUnits="userSpaceOnUse" color-interpolation-filters="sRGB">
<feFlood flood-opacity="0" result="BackgroundImageFix"/>
<feColorMatrix in="SourceAlpha" type="matrix" values="0 0 0 0 0 0 0 0 0 0 0 0 0 0 0 0 0 0 127 0" result="hardAlpha"/>
<feOffset/>
<feGaussianBlur stdDeviation="39.4"/>
<feComposite in2="hardAlpha" operator="out"/>
<feColorMatrix type="matrix" values="0 0 0 0 1 0 0 0 0 1 0 0 0 0 1 0 0 0 0.25 0"/>
<feBlend mode="normal" in2="BackgroundImageFix" result="effect1_dropShadow_239_24"/>
<feBlend mode="normal" in="SourceGraphic" in2="effect1_dropShadow_239_24" result="shape"/>
<feColorMatrix in="SourceAlpha" type="matrix" values="0 0 0 0 0 0 0 0 0 0 0 0 0 0 0 0 0 0 127 0" result="hardAlpha"/>
<feOffset/>
<feGaussianBlur stdDeviation="59.9"/>
<feComposite in2="hardAlpha" operator="arithmetic" k2="-1" k3="1"/>
<feColorMatrix type="matrix" values="0 0 0 0 0.971667 0 0 0 0 0.7579 0 0 0 0 0.873334 0 0 0 1 0"/>
<feBlend mode="normal" in2="shape" result="effect2_innerShadow_239_24"/>
</filter>
</defs>
</svg>
