<svg width="533" height="131" viewBox="0 0 533 131" fill="none" xmlns="http://www.w3.org/2000/svg">
<path d="M74.6875 65.1875C64.8438 65.1875 55.5781 61.3594 48.6094 54.3906C41.6406 47.4219 37.8125 38.1563 37.8125 28.3125V28H37.1875V28.3125C37.1875 38.1563 33.3594 47.4219 26.3906 54.3906C19.4219 61.3594 10.1563 65.1875 0.3125 65.1875H0V65.8125H0.3125C10.1563 65.8125 19.4219 69.6406 26.3906 76.6094C33.3594 83.5781 37.1875 92.8438 37.1875 102.688V103H37.8125V102.688C37.8125 92.8438 41.6406 83.5781 48.6094 76.6094C55.5781 69.6406 64.8438 65.8125 74.6875 65.8125H75V65.1875H74.6875Z" fill="#F8C1DF"/>
<rect x="37.5" y="0.5" width="495" height="130" rx="18.5" stroke="#F8C1DF"/>
</svg>
