<svg width="453" height="135" viewBox="0 0 453 135" fill="none" xmlns="http://www.w3.org/2000/svg">
<rect x="0.5" y="0.5" width="419" height="134" rx="18.5" stroke="#F8C1DF"/>
<path d="M452.725 69.16C444.062 69.16 435.909 65.0259 429.776 57.5001C423.644 49.9743 420.275 39.9681 420.275 29.3375V29H419.725V29.3375C419.725 39.9681 416.356 49.9743 410.224 57.5001C404.091 65.0259 395.938 69.16 387.275 69.16H387V69.835H387.275C395.938 69.835 404.091 73.9691 410.224 81.4949C416.356 89.0207 419.725 99.0269 419.725 109.658V109.995H420.275V109.658C420.275 99.0269 423.644 89.0207 429.776 81.4949C435.909 73.9691 444.062 69.835 452.725 69.835H453V69.16H452.725Z" fill="#F8C1DF"/>
</svg>
