<svg width="664" height="141" viewBox="0 0 664 141" fill="none" xmlns="http://www.w3.org/2000/svg">
<rect x="33.5" y="0.5" width="630" height="140" rx="18.5" stroke="#F8C1DF"/>
<path d="M65.725 71.16C57.0625 71.16 48.9087 67.0259 42.7762 59.5001C36.6437 51.9743 33.275 41.9681 33.275 31.3375V31H32.725V31.3375C32.725 41.9681 29.3562 51.9743 23.2237 59.5001C17.0912 67.0259 8.9375 71.16 0.275 71.16H0V71.835H0.275C8.9375 71.835 17.0912 75.9691 23.2237 83.4949C29.3562 91.0207 32.725 101.027 32.725 111.658V111.995H33.275V111.658C33.275 101.027 36.6437 91.0207 42.7762 83.4949C48.9087 75.9691 57.0625 71.835 65.725 71.835H66V71.16H65.725Z" fill="#F8C1DF"/>
</svg>
