<svg width="463" height="131" viewBox="0 0 463 131" fill="none" xmlns="http://www.w3.org/2000/svg">
<rect x="33.5" y="0.5" width="429" height="130" rx="18.5" stroke="#F8C1DF"/>
<path d="M65.725 66.16C57.0625 66.16 48.9087 62.0259 42.7762 54.5001C36.6437 46.9743 33.275 36.9681 33.275 26.3375V26H32.725V26.3375C32.725 36.9681 29.3562 46.9743 23.2237 54.5001C17.0912 62.0259 8.9375 66.16 0.275 66.16H0V66.835H0.275C8.9375 66.835 17.0912 70.9691 23.2237 78.4949C29.3562 86.0207 32.725 96.0269 32.725 106.658V106.995H33.275V106.658C33.275 96.0269 36.6437 86.0207 42.7762 78.4949C48.9087 70.9691 57.0625 66.835 65.725 66.835H66V66.16H65.725Z" fill="#F8C1DF"/>
</svg>
