<svg width="528" height="131" viewBox="0 0 528 131" fill="none" xmlns="http://www.w3.org/2000/svg">
<rect x="37.5" y="0.5" width="490" height="130" rx="18.5" stroke="#F8C1DF"/>
<path d="M74.6875 64.7237C64.8438 64.7237 55.5781 60.0169 48.6094 51.4485C41.6406 42.8801 37.8125 31.4876 37.8125 19.3842V19H37.1875V19.3842C37.1875 31.4876 33.3594 42.8801 26.3906 51.4485C19.4219 60.0169 10.1563 64.7237 0.3125 64.7237H0V65.4922H0.3125C10.1563 65.4922 19.4219 70.199 26.3906 78.7674C33.3594 87.3358 37.1875 98.7283 37.1875 110.832V111.216H37.8125V110.832C37.8125 98.7283 41.6406 87.3358 48.6094 78.7674C55.5781 70.199 64.8438 65.4922 74.6875 65.4922H75V64.7237H74.6875Z" fill="#F8C1DF"/>
</svg>
