<svg width="385" height="139" viewBox="0 0 385 139" fill="none" xmlns="http://www.w3.org/2000/svg">
<rect x="31.5" y="0.5" width="353" height="138" rx="18.5" stroke="#F8C1DF"/>
<path d="M61.7417 69.1875C53.6042 69.1875 45.9446 65.3594 40.1837 58.3906C34.4229 51.4219 31.2583 42.1563 31.2583 32.3125V32H30.7417V32.3125C30.7417 42.1563 27.5771 51.4219 21.8162 58.3906C16.0554 65.3594 8.39583 69.1875 0.258333 69.1875H0V69.8125H0.258333C8.39583 69.8125 16.0554 73.6406 21.8162 80.6094C27.5771 87.5781 30.7417 96.8438 30.7417 106.688V107H31.2583V106.688C31.2583 96.8438 34.4229 87.5781 40.1837 80.6094C45.9446 73.6406 53.6042 69.8125 61.7417 69.8125H62V69.1875H61.7417Z" fill="#F8C1DF"/>
</svg>
