<svg width="399" height="88" viewBox="0 0 399 88" fill="none" xmlns="http://www.w3.org/2000/svg">
<path d="M46.8042 44.3042C40.6354 44.3042 34.829 41.9052 30.4619 37.5381C26.0948 33.171 23.6958 27.3646 23.6958 21.1958V21H23.3042V21.1958C23.3042 27.3646 20.9052 33.171 16.5381 37.5381C12.171 41.9052 6.36458 44.3042 0.195833 44.3042H0V44.6958H0.195833C6.36458 44.6958 12.171 47.0948 16.5381 51.4619C20.9052 55.829 23.3042 61.6354 23.3042 67.8042V68H23.6958V67.8042C23.6958 61.6354 26.0948 55.829 30.4619 51.4619C34.829 47.0948 40.6354 44.6958 46.8042 44.6958H47V44.3042H46.8042Z" fill="#F8C1DF"/>
<rect x="23.5" y="0.5" width="375" height="87" rx="18.5" stroke="#F8C1DF"/>
</svg>
