<svg width="90" height="398" viewBox="0 0 90 398" fill="none" xmlns="http://www.w3.org/2000/svg">
<path d="M37.3955 22.0595C53.1552 22.9513 53.8022 23.599 54.6931 39.3632H55.1491C56.0406 23.5979 56.6882 22.9507 72.4467 22.0595V21.6033C56.687 20.7115 56.04 20.0637 55.1491 4.2995H54.6931C53.8016 20.0648 53.1541 20.712 37.3955 21.6033V22.0595ZM46.7631 21.1739C49.2141 20.7052 50.8102 19.9901 51.9462 18.856C53.0823 17.7218 53.7953 16.1224 54.2633 13.671C54.5563 12.1371 54.749 10.3438 54.9205 7.95972C55.0915 10.3444 55.2848 12.1371 55.5783 13.671C56.0469 16.1229 56.7617 17.7195 57.8954 18.856C59.0292 19.9924 60.6281 20.7052 63.0786 21.1739C64.6119 21.467 66.404 21.6597 68.7878 21.8314C66.404 22.0024 64.6119 22.1957 63.0786 22.4894C60.6275 22.9581 59.0315 23.6732 57.8954 24.8073C56.7594 25.9415 56.0469 27.5415 55.5783 29.9934C55.2854 31.5273 55.0927 33.3207 54.9205 35.7047C54.7495 33.3201 54.5563 31.5273 54.2633 29.9934C53.7948 27.5415 53.08 25.9449 51.9462 24.8085C50.8125 23.672 49.2136 22.9587 46.7631 22.4905C45.2298 22.1974 43.4376 22.0047 41.0538 21.8325C43.4371 21.6603 45.2292 21.4676 46.7631 21.1739Z" fill="#F8C1DF"/>
<path d="M72.9342 53.6117C72.4862 49.103 70.6844 43.6723 67.7232 37.9068L67.3122 38.1047C70.9158 46.1219 71.2453 52.4137 68.1957 54.9346C66.9417 55.973 65.1832 56.3431 62.9767 56.034C60.8106 55.7301 58.3094 54.7904 55.5449 53.2399C49.8328 50.0365 43.6544 44.6012 38.1475 37.9342C32.6406 31.2672 28.4693 24.1726 26.4013 17.9572C25.3992 14.9494 24.9489 12.3167 25.0572 10.1293C25.1712 7.90547 25.8637 6.24785 27.12 5.20892C30.1725 2.68799 36.2864 4.1985 43.4783 9.25004L43.7496 8.88396C38.648 4.88789 33.6564 2.09383 29.314 0.80343C24.7995 -0.537718 21.14 -0.195018 18.73 1.79561C16.9681 3.25365 15.9512 5.49631 15.709 8.46257C15.477 11.2948 15.9586 14.6694 17.1397 18.4938C19.5605 26.3286 24.6513 35.192 31.4732 43.4505C38.2951 51.7089 46.0371 58.3821 53.2728 62.2374C56.8069 64.1191 60.0269 65.2287 62.849 65.5349C63.3582 65.5912 63.8701 65.62 64.3823 65.621C66.643 65.621 68.5155 65.0183 69.9633 63.8214C72.3733 61.8302 73.3999 58.3 72.9342 53.6117ZM69.6749 63.469C68.0099 64.8455 65.7304 65.3878 62.8997 65.081C60.1335 64.7811 56.9665 63.6886 53.4871 61.8348C46.305 58.0069 38.6098 51.3748 31.8266 43.1602C25.0435 34.9457 19.9795 26.1381 17.5758 18.361C16.4112 14.5907 15.937 11.2737 16.165 8.49964C16.393 5.6611 17.3574 3.52393 19.0225 2.14743C20.3831 1.02182 22.1809 0.456168 24.3338 0.456168C25.7953 0.456168 27.4204 0.717327 29.1841 1.24136C32.0638 2.09668 35.2387 3.62657 38.5448 5.73922C36.9134 4.92267 35.3596 4.32337 33.9345 3.96243C30.9198 3.19891 28.4624 3.50625 26.8316 4.85767C24.1668 7.06098 23.8601 11.7641 25.9692 18.1015C28.0537 24.3688 32.2542 31.5158 37.7958 38.225C43.3375 44.9342 49.562 50.4071 55.322 53.6379C58.8276 55.6041 61.9165 56.5985 64.4017 56.5985C66.0451 56.5985 67.4228 56.1634 68.4859 55.287C70.1178 53.9379 70.885 51.5806 70.7038 48.4781C70.6183 47.0103 70.3224 45.3732 69.8294 43.6141C71.2801 47.2595 72.183 50.6666 72.4822 53.6573C72.9302 58.1871 71.9601 61.5799 69.6743 63.4696L69.6749 63.469Z" fill="#F8C1DF"/>
<path d="M61.3881 222C55.2902 222 49.6385 223.875 44.9907 227.079C40.1756 223.766 34.5053 222 28.5747 222C12.8279 222 0 234.562 0 250C0 265.438 12.8279 278 28.5933 278C34.5053 278 40.1756 276.252 45.0093 272.921C49.6571 276.107 55.3088 278 61.4067 278C77.1721 278 90 265.438 90 250C90 234.562 77.1535 222 61.3881 222ZM80.9089 230.575L41.5699 269.134C40.6404 268.224 39.7852 267.241 39.0043 266.203L77.9157 228.062C78.9754 228.827 79.9793 229.665 80.9089 230.575ZM77.3208 227.644L38.5581 265.584C37.7773 264.492 37.0894 263.363 36.4759 262.161L73.8257 225.605C75.0341 226.205 76.2053 226.879 77.3208 227.644ZM73.1192 225.277L36.1413 261.469C35.5278 260.195 35.0258 258.866 34.6168 257.501L69.0663 223.784C70.4606 224.185 71.8178 224.676 73.1192 225.277ZM68.2297 223.566L34.3937 256.7C34.0033 255.17 33.743 253.605 33.6129 252.003L63.4332 222.801C65.0692 222.91 66.668 223.183 68.2297 223.566ZM61.4067 222.728C61.7414 222.728 62.0946 222.746 62.4292 222.746L33.5757 251.02C33.5571 250.674 33.5571 250.346 33.5571 250C33.5571 248.343 33.7058 246.723 34.0033 245.157L56.4615 223.165C58.0603 222.874 59.7149 222.728 61.4067 222.728ZM55.1229 223.438L34.2636 243.865C36.6433 233.743 44.8048 225.769 55.1229 223.438ZM28.5933 277.272C13.2369 277.272 0.743648 265.038 0.743648 250C0.743648 234.962 13.2369 222.728 28.5933 222.728C34.2636 222.728 39.7108 224.385 44.3586 227.516C37.3497 232.632 32.7949 240.788 32.7949 249.982C32.7949 259.176 37.3497 267.35 44.3586 272.447C39.7108 275.615 34.2636 277.272 28.5933 277.272ZM42.0905 269.644L81.448 231.103C82.359 232.031 83.2142 233.033 83.9765 234.07L45.1208 272.12C44.0611 271.373 43.0386 270.536 42.0905 269.644ZM45.7529 272.557L84.4226 234.689C85.1849 235.782 85.8728 236.947 86.4677 238.148L49.2853 274.559C48.0583 273.977 46.887 273.303 45.7529 272.557ZM49.9917 274.869L86.8023 238.84C87.3972 240.133 87.8806 241.462 88.271 242.863L54.1004 276.307C52.6875 275.925 51.3117 275.451 49.9917 274.869ZM54.937 276.525L88.4755 243.665C88.8473 245.212 89.089 246.796 89.182 248.416L59.7893 277.217C58.1347 277.126 56.4987 276.889 54.937 276.525ZM68.2855 276.416L88.3826 256.736C85.8728 266.367 78.1016 273.958 68.2855 276.416ZM88.68 255.407L66.9097 276.726C65.125 277.072 63.2844 277.272 61.3881 277.272C61.2022 277.272 60.9977 277.272 60.7932 277.254L89.2378 249.417C89.2378 249.618 89.2378 249.8 89.2378 250C89.2378 251.857 89.0518 253.659 88.68 255.407Z" fill="#F8C1DF"/>
<path d="M74.9455 147.833C77.9397 145.171 79.5405 142.152 79.5405 139C79.5405 135.788 77.8507 132.665 74.6639 129.929C77.8359 127.208 79.5405 124.1 79.5405 120.844C79.5405 116.041 75.8497 111.535 69.1351 108.175C62.4946 104.844 53.6603 103 44.2777 103C34.895 103 26.0459 104.844 19.4054 108.175C12.6908 111.535 9 116.041 9 120.844C9 124.1 10.6898 127.208 13.8766 129.929C10.6898 132.665 9 135.788 9 139C9 142.257 10.6898 145.364 13.8766 148.086C10.6898 150.822 9 153.944 9 157.156C9 161.959 12.6908 166.465 19.4054 169.825C26.0459 173.156 34.8802 175 44.2628 175C53.6455 175 62.4798 173.171 69.1203 169.825C70.1578 169.305 71.1361 168.755 72.0255 168.175C77.0207 165.126 80 161.216 80 156.963C80 153.617 78.1472 150.494 74.9455 147.833ZM9.5929 120.844C9.5929 111.342 25.1418 103.595 44.2628 103.595C63.3839 103.595 78.9328 111.327 78.9328 120.844C78.9328 130.346 63.3839 138.093 44.2628 138.093C25.1418 138.093 9.5929 130.346 9.5929 120.844ZM44.2628 156.249C25.1418 156.249 9.5929 148.502 9.5929 139C9.5929 135.937 11.2382 132.948 14.3361 130.316C15.7591 131.461 17.4489 132.546 19.4054 133.513C26.0459 136.844 34.8802 138.688 44.2628 138.688C53.6455 138.688 62.4798 136.859 69.1203 133.513C71.0768 132.532 72.7666 131.461 74.1896 130.316C77.2875 132.948 78.9328 135.952 78.9328 139C78.9328 148.502 63.3839 156.249 44.2628 156.249Z" fill="#F8C1DF"/>
<path d="M45.6526 324.783C45.1355 360.234 44.7162 360.651 9.13086 361.167C44.7162 361.682 45.1355 362.1 45.6526 397.551C46.1697 362.1 46.589 361.682 82.1743 361.167C46.589 360.651 46.1697 360.234 45.6526 324.783Z" fill="#F8C1DF"/>
<path d="M64.9062 356.894C65.0885 344.224 65.241 344.074 77.9598 343.89C65.241 343.708 65.0909 343.556 64.9062 330.886C64.7239 343.556 64.5713 343.706 51.8525 343.89C64.5719 344.075 64.7214 344.224 64.9062 356.894Z" fill="#F8C1DF"/>
<path d="M25.3456 367.33C25.1633 380.001 25.0108 380.15 12.292 380.334C25.0108 380.516 25.1609 380.668 25.3456 393.339C25.5279 380.668 25.6805 380.518 38.3993 380.334C25.6805 380.15 25.531 380.001 25.3456 367.33Z" fill="#F8C1DF"/>
</svg>
