<svg width="651" height="511" viewBox="0 0 651 511" fill="none" xmlns="http://www.w3.org/2000/svg">
<path d="M597.74 175.531C611.659 222.966 594.21 275.024 554.156 320.937C514.121 366.829 451.675 406.34 376.278 428.464C300.881 450.588 226.987 451.083 168.502 434.1C109.99 417.109 67.1793 382.734 53.2603 335.299C39.3414 287.864 56.7904 235.806 96.8439 189.893C136.879 144.001 199.325 104.49 274.722 82.3659C350.119 60.242 424.013 59.7465 482.498 76.7299C541.01 93.721 583.821 128.096 597.74 175.531Z" stroke="#F8C1DF" stroke-width="4"/>
<path d="M592.263 265.041L591.926 264.835L579.26 283.955L572.826 261.941L572.443 262.038L577.002 284.512L556.888 273.5L556.681 273.837L575.802 286.503L553.787 292.937L553.885 293.32L576.359 288.761L565.347 308.875L565.684 309.082L578.35 289.962L584.784 311.976L585.167 311.878L580.608 289.405L600.722 300.416L600.929 300.08L581.808 287.413L603.823 280.979L603.725 280.596L581.251 285.156L592.263 265.041Z" fill="#F8C1DF"/>
<path d="M564.895 310.554L564.712 310.379L554.194 320.638L553.144 305.983L552.891 305.992L552.705 320.681L541.6 311.065L541.425 311.248L551.683 321.766L537.028 322.816L537.038 323.069L551.727 323.255L542.11 334.36L542.293 334.535L552.811 324.276L553.861 338.931L554.114 338.922L554.3 324.233L565.405 333.85L565.58 333.667L555.322 323.148L569.977 322.098L569.967 321.845L555.278 321.659L564.895 310.554Z" fill="#F8C1DF"/>
<path d="M234.828 88.1943L234.646 88.0193L224.127 98.2782L223.077 83.623L222.824 83.6324L222.638 98.3215L211.533 88.7048L211.358 88.8878L221.617 99.406L206.962 100.456L206.971 100.709L221.66 100.895L212.044 112L212.227 112.175L222.745 101.916L223.795 116.572L224.048 116.562L224.234 101.873L235.339 111.49L235.514 111.307L225.255 100.789L239.91 99.7383L239.901 99.4853L225.212 99.2995L234.828 88.1943Z" fill="#F8C1DF"/>
<path d="M122.883 425.886C122.434 432.482 125.736 446.386 132.025 471.59C124.375 444.87 120.011 430.234 114.957 420.387C109.097 418.27 103.462 420.837 94.0561 425.875C102.035 419.085 106.513 414.817 106.826 408.783C102.748 404.516 97.6496 400.754 90.6552 395.795C97.7015 399.311 102.592 401.523 105.455 401.171C102.814 393.766 96.3657 383.459 85.6256 366.776C96.1647 381.436 103.091 390.855 108.699 396.335C109.148 389.738 105.857 375.781 99.5572 350.63C107.207 377.35 111.571 391.987 116.625 401.834C122.485 403.95 128.12 401.384 137.526 396.345C129.547 403.136 125.069 407.403 124.756 413.438C128.835 417.705 133.932 421.466 140.927 426.425C133.881 422.91 128.99 420.697 126.127 421.049C128.768 428.454 135.216 438.761 145.956 455.444C135.417 440.784 128.492 431.365 122.883 425.886Z" fill="#F8C1DF"/>
<path d="M540.677 114.929C540.228 121.525 543.53 135.429 549.819 160.633C542.169 133.914 537.805 119.277 532.751 109.43C526.891 107.314 521.256 109.88 511.85 114.919C519.829 108.128 524.307 103.861 524.62 97.8262C520.541 93.5592 515.444 89.7979 508.449 84.8387C515.495 88.3541 520.386 90.5665 523.249 90.2145C520.608 82.8095 514.16 72.5025 503.42 55.8197C513.959 70.4797 520.885 79.8986 526.493 85.378C526.942 78.7819 523.651 64.8242 517.351 39.6739C525.001 66.3938 529.365 81.03 534.419 90.8772C540.279 92.9936 545.914 90.4272 555.32 85.3884C547.341 92.1791 542.863 96.4464 542.55 102.481C546.628 106.748 551.726 110.509 558.721 115.469C551.675 111.953 546.784 109.741 543.921 110.093C546.562 117.498 553.01 127.805 563.75 144.488C553.211 129.828 546.285 120.409 540.677 114.929Z" fill="#F8C1DF"/>
</svg>
