<svg width="453" height="455" viewBox="0 0 453 455" fill="none" xmlns="http://www.w3.org/2000/svg">
<path d="M433.099 44.1345L453 39.1528L433.099 34.1711L447.85 19.8933L428.119 25.5268L433.75 5.78621L419.479 20.5451L414.5 0.633789L409.521 20.5451L395.25 5.78621L400.881 25.5268L381.15 19.8933L395.901 34.1711L376 39.1528L395.901 44.1345L381.15 58.4123L400.881 52.7788L395.25 72.5194L409.521 57.7605L414.5 77.6718L419.479 57.7605L433.75 72.5194L428.119 52.7788L447.85 58.4123L433.099 44.1345ZM414.5 54.2065C406.186 54.2065 399.454 47.4711 399.454 39.1528C399.454 30.8344 406.186 24.099 414.5 24.099C422.814 24.099 429.546 30.8344 429.546 39.1528C429.546 47.4711 422.814 54.2065 414.5 54.2065Z" fill="#F8C1DF"/>
<path d="M41.6022 63.5488C27.9703 63.5488 16.881 52.3788 16.881 38.6476C16.881 24.9164 27.9703 13.7465 41.6022 13.7465C47.4647 13.7465 52.7621 15.8097 57 19.1536C51.2082 11.5409 42.0967 6.63184 31.7844 6.63184C14.197 6.63184 0 20.9322 0 38.6476C0 56.363 14.197 70.6634 31.7844 70.6634C42.0967 70.6634 51.2082 65.7543 57 58.1417C52.7621 61.4855 47.4647 63.5488 41.6022 63.5488Z" fill="#F8C1DF"/>
<line x1="9" y1="38.5" x2="386" y2="38.5" stroke="#F8C1DF" stroke-width="3"/>
<line x1="37" y1="453.5" x2="414" y2="453.5" stroke="#F8C1DF" stroke-width="3"/>
</svg>
